<svg width="15" height="15" viewBox="0 0 15 15" fill="none" xmlns="http://www.w3.org/2000/svg">
<g clip-path="url(#clip0_698_1046)">
<path d="M14.3747 11.1938C14.3872 11.6625 14.2622 12.1063 14.0372 12.4875C13.9122 12.7125 13.7435 12.9188 13.556 13.0875C13.1247 13.4875 12.556 13.7313 11.9247 13.75C11.0122 13.7688 10.206 13.3 9.76224 12.5813C9.52474 12.2125 9.38099 11.7688 9.37474 11.3C9.35599 10.5125 9.70599 9.80001 10.2685 9.33126C10.6935 8.98126 11.231 8.76251 11.8185 8.75001C12.1468 8.74254 12.4734 8.79983 12.7796 8.91861C13.0858 9.03739 13.3655 9.21534 13.6029 9.44227C13.8403 9.66921 14.0306 9.9407 14.1631 10.2412C14.2955 10.5418 14.3674 10.8654 14.3747 11.1938Z" stroke="#999798" stroke-width="1.5" stroke-miterlimit="10" stroke-linecap="round" stroke-linejoin="round"/>
<path d="M10.9002 11.2687L11.5314 11.8687L12.8377 10.6062M1.98145 4.64999L7.5002 7.84374L12.9814 4.66874M7.5002 13.5062V7.83749" stroke="#999798" stroke-width="1.5" stroke-linecap="round" stroke-linejoin="round"/>
<path d="M13.5066 5.73125V9.26875C13.5066 9.3 13.5066 9.325 13.5004 9.35625C13.0629 8.975 12.5004 8.75 11.8754 8.75C11.2879 8.75 10.7441 8.95625 10.3129 9.3C10.0195 9.53314 9.78276 9.8297 9.6204 10.1674C9.45803 10.5052 9.37426 10.8753 9.37539 11.25C9.37539 11.7188 9.50664 12.1625 9.73789 12.5375C9.79414 12.6375 9.86289 12.7313 9.93789 12.8188L8.79414 13.45C8.08164 13.85 6.91914 13.85 6.20664 13.45L2.86914 11.6C2.11289 11.1812 1.49414 10.1312 1.49414 9.26875V5.73125C1.49414 4.86875 2.11289 3.81875 2.86914 3.4L6.20664 1.55C6.91914 1.15 8.08164 1.15 8.79414 1.55L12.1316 3.4C12.8879 3.81875 13.5066 4.86875 13.5066 5.73125Z" stroke="#999798" stroke-width="1.5" stroke-linecap="round" stroke-linejoin="round"/>
</g>
<defs>
<clipPath id="clip0_698_1046">
<rect width="15" height="15" fill="white"/>
</clipPath>
</defs>
</svg>
