<svg width="15" height="15" viewBox="0 0 15 15" fill="none" xmlns="http://www.w3.org/2000/svg">
<g clip-path="url(#clip0_698_1044)">
<path d="M0.948242 9.45532L3.59013 11.1663L6.21407 9.46537M3.59013 14.1997V11.1629" stroke="#999798" stroke-width="1.5" stroke-linecap="round" stroke-linejoin="round"/>
<path d="M2.97077 7.79462L1.37307 8.78569C1.01105 9.01002 0.714844 9.57252 0.714844 10.0346V11.9263C0.714844 12.3884 1.01105 12.9509 1.37307 13.1752L2.97077 14.1696C3.31185 14.3806 3.87135 14.3806 4.21243 14.1696L5.81013 13.1752C6.17216 12.9509 6.46836 12.3884 6.46836 11.9263V10.0346C6.46836 9.57252 6.17216 9.01002 5.81013 8.78569L4.21243 7.79127C3.86836 7.58033 3.31185 7.58033 2.97077 7.79462Z" stroke="#999798" stroke-width="1.5" stroke-linecap="round" stroke-linejoin="round"/>
</g>
<g clip-path="url(#clip1_698_1044)">
<path d="M8.76758 9.45532L11.4095 11.1663L14.0334 9.46537M11.4095 14.1997V11.1629" stroke="#999798" stroke-width="1.5" stroke-linecap="round" stroke-linejoin="round"/>
<path d="M10.7901 7.79462L9.19241 8.78569C8.83038 9.01002 8.53418 9.57252 8.53418 10.0346V11.9263C8.53418 12.3884 8.83038 12.9509 9.19241 13.1752L10.7901 14.1696C11.1312 14.3806 11.6907 14.3806 12.0318 14.1696L13.6295 13.1752C13.9915 12.9509 14.2877 12.3884 14.2877 11.9263V10.0346C14.2877 9.57252 13.9915 9.01002 13.6295 8.78569L12.0318 7.79127C11.6877 7.58033 11.1312 7.58033 10.7901 7.79462Z" stroke="#999798" stroke-width="1.5" stroke-linecap="round" stroke-linejoin="round"/>
</g>
<g clip-path="url(#clip2_698_1044)">
<path d="M5.17676 2.49106L7.81865 4.202L10.4426 2.5011M7.81865 7.23548V4.19865" stroke="#999798" stroke-width="1.5" stroke-linecap="round" stroke-linejoin="round"/>
<path d="M7.19929 0.830355L5.60159 1.82143C5.23956 2.04576 4.94336 2.60826 4.94336 3.07031V4.96205C4.94336 5.42411 5.23956 5.9866 5.60159 6.21094L7.19929 7.20536C7.54037 7.41629 8.09986 7.41629 8.44095 7.20536L10.0386 6.21094C10.4007 5.9866 10.6969 5.42411 10.6969 4.96205V3.07031C10.6969 2.60826 10.4007 2.04576 10.0386 1.82143L8.44095 0.827007C8.09687 0.61607 7.54037 0.61607 7.19929 0.830355Z" stroke="#999798" stroke-width="1.5" stroke-linecap="round" stroke-linejoin="round"/>
</g>
<defs>
<clipPath id="clip0_698_1044">
<rect width="7.18067" height="8.03571" fill="white" transform="translate(0 6.96426)"/>
</clipPath>
<clipPath id="clip1_698_1044">
<rect width="7.18067" height="8.03571" fill="white" transform="translate(7.81934 6.96426)"/>
</clipPath>
<clipPath id="clip2_698_1044">
<rect width="7.18067" height="8.03571" fill="white" transform="translate(4.22852)"/>
</clipPath>
</defs>
</svg>
